<svg width="380.000000pt" height="377.000000pt" viewBox="0 0 380.000000 377.000000" xmlns="http://www.w3.org/2000/svg">
  <g transform="translate(0.000000,377.000000) scale(0.100000,-0.100000)" fill="#d3fdfc" stroke="none">
    <path d="M1745 3294 c-481 -73 -833 -297 -1061 -674 -21 -36 -42 -67 -45 -70
-31 -24 -110 -240 -141 -383 l-22 -102 0 -180 0 -180 22 -102 c31 -143 110
-359 141 -383 3 -3 24 -34 45 -70 201 -334 539 -571 937 -657 l84 -18 195 0
195 0 85 18 c407 88 740 323 945 667 21 36 42 67 47 71 4 3 23 41 42 85 128
295 150 650 60 962 -28 97 -77 219 -99 248 -9 10 -34 51 -57 89 -197 335 -531
571 -926 656 l-97 20 -160 4 c-88 2 -173 1 -190 -1z m411 -83 c194 -38 347
-101 507 -208 l100 -66 97 -97 97 -97 66 -99 c36 -54 80 -130 98 -169 18 -38
36 -71 41 -73 10 -5 65 -177 86 -272 l17 -75 0 -170 0 -170 -19 -85 c-21 -98
-73 -262 -85 -270 -5 -3 -25 -39 -46 -80 -20 -41 -62 -113 -93 -160 l-56 -85
-106 -105 -105 -106 -85 -56 c-162 -107 -319 -173 -510 -214 l-85 -19 -175 0
-175 0 -85 19 c-286 62 -506 181 -706 383 l-92 91 -65 99 c-36 54 -78 125 -94
158 -15 33 -33 66 -40 73 -38 40 -100 305 -109 467 l-6 100 11 95 c18 143 84
383 111 400 4 3 24 39 45 80 267 531 875 826 1461 711z" />
  </g>
  <g transform="translate(0.000000,377.000000) scale(0.100000,-0.100000)" fill="#07fd0c" stroke="none">
    <path d="M1760 2839 c-224 -33 -427 -141 -581 -307 -133 -144 -204 -290 -245
-507 l-16 -80 6 -120 5 -120 25 -95 24 -96 45 -89 c150 -297 415 -489 736
-536 l84 -12 126 6 126 6 89 25 c334 94 585 345 686 686 l22 75 5 165 4 165
-25 100 -26 100 -49 100 -50 100 -65 82 -66 82 -74 60 c-225 178 -502 253
-786 210z m299 -90 c351 -58 639 -321 733 -669 l23 -85 0 -135 0 -135 -23 -85
c-123 -458 -559 -743 -1022 -669 -381 60 -690 375 -751 762 l-12 78 6 102 6
102 22 75 c129 450 567 734 1018 659z" />
  </g>
  <g transform="translate(0.000000,377.000000) scale(0.100000,-0.100000)" fill="#bbfef5" stroke="none">
    <path d="M1746 3240 c-466 -59 -860 -330 -1061 -730 -21 -41 -41 -77 -45 -80
-27 -17 -93 -257 -111 -400 l-11 -95 5 -110 c9 -168 71 -436 110 -477 7 -7 25
-40 40 -73 16 -33 58 -104 94 -158 l65 -99 92 -91 c200 -202 420 -321 706
-383 l85 -19 185 0 185 0 85 19 c191 41 348 107 510 214 l85 56 105 106 106
105 56 85 c31 47 73 119 93 160 21 41 41 77 46 80 12 8 64 172 85 270 l19 85
0 180 0 180 -17 75 c-21 95 -76 267 -86 272 -5 2 -23 35 -41 73 -18 39 -62
115 -98 169 l-66 99 -97 97 -97 97 -100 66 c-161 107 -313 170 -508 208 l-100
20 -125 4 c-69 2 -156 0 -194 -5z m385 -65 c256 -42 518 -181 715 -379 l80
-81 71 -107 70 -107 44 -103 c24 -57 47 -105 51 -108 11 -8 45 -163 59 -265
l12 -90 -6 -110 c-7 -133 -45 -327 -67 -345 -3 -3 -14 -27 -24 -55 -154 -415
-527 -734 -976 -831 l-85 -19 -175 0 -175 0 -85 19 c-428 92 -802 400 -955
786 -16 41 -33 78 -37 81 -16 11 -56 196 -68 308 l-11 115 11 115 c12 113 53
300 69 311 5 3 23 40 41 82 232 560 826 882 1441 783z" />
  </g>
  <g transform="translate(0.000000,377.000000) scale(0.100000,-0.100000)" fill="#3cfd00" stroke="none">
    <path d="M1791 2719 c-392 -51 -695 -362 -742 -764 l-11 -95 11 -95 c49 -416
354 -719 772 -767 l96 -11 95 12 c417 49 720 351 769 766 l11 95 -11 95 c-59
496 -490 829 -990 764z m326 -108 c392 -103 648 -508 568 -897 -64 -305 -294
-540 -605 -615 l-55 -14 -120 1 -120 0 -70 21 c-297 89 -499 303 -566 598
l-21 90 5 100 5 100 26 82 c97 302 342 511 651 557 17 2 75 3 130 0 l100 -4
72 -19z" />
  </g>
  <g transform="translate(0.000000,377.000000) scale(0.100000,-0.100000)" fill="#62fd00" stroke="none">
    <path d="M1795 2643 c-321 -62 -544 -256 -641 -556 l-26 -82 -5 -110 -5 -110
21 -90 c66 -293 268 -508 561 -597 l65 -20 120 -4 120 -3 80 18 c260 61 462
226 561 461 190 453 -64 960 -541 1076 l-90 22 -100 -1 c-55 0 -109 -2 -120
-4z m283 -94 c306 -75 527 -333 548 -639 l6 -85 -15 -90 -16 -90 -45 -90 c-76
-151 -172 -248 -314 -322 l-78 -40 -86 -22 -87 -21 -78 0 -79 0 -85 21 c-306
77 -521 330 -545 641 l-7 84 12 70 c41 238 178 420 396 529 l90 45 70 14 c39
7 105 14 148 15 l78 1 87 -21z" />
  </g>
  <g transform="translate(0.000000,377.000000) scale(0.100000,-0.100000)" fill="#89fd00" stroke="none">
    <path d="M1820 2577 c-3 -3 -25 -8 -50 -11 -272 -37 -520 -293 -571 -590 l-12
-70 6 -95 c21 -317 237 -572 551 -651 l89 -22 106 5 c58 2 117 7 130 11 226
55 394 188 497 391 l45 90 16 90 15 90 -5 95 -6 95 -20 62 c-84 260 -269 429
-545 500 -29 8 -240 16 -246 10z m230 -99 c30 -5 96 -29 145 -53 l90 -44 52
-46 c69 -61 134 -156 172 -251 l32 -79 7 -90 8 -90 -14 -75 c-41 -221 -179
-388 -397 -480 l-80 -33 -108 -5 -107 -5 -62 13 c-196 38 -386 192 -458 372
-12 29 -26 64 -32 78 -6 14 -13 75 -15 135 l-5 110 16 69 c34 144 118 270 241
364 l70 52 80 31 80 31 85 7 c87 8 105 7 200 -11z" />
  </g>
  <g transform="translate(0.000000,377.000000) scale(0.100000,-0.100000)" fill="#1cfd01" stroke="none">
    <path d="M1745 2758 c-363 -83 -616 -316 -714 -658 l-22 -75 -6 -112 -6 -112
12 -78 c71 -454 449 -773 918 -773 l102 0 68 15 c351 74 613 321 705 665 l23
85 0 145 0 145 -23 85 c-92 339 -359 591 -707 665 l-60 13 -125 0 c-69 0 -143
-5 -165 -10z m273 -48 c401 -51 703 -355 753 -760 l10 -90 -10 -90 c-50 -410
-355 -713 -766 -761 l-92 -11 -91 11 c-410 50 -713 352 -763 761 l-10 90 10
90 c59 482 485 819 959 760z" />
  </g>
  <g transform="translate(0.000000,377.000000) scale(0.100000,-0.100000)" fill="#a3feea" stroke="none">
    <path d="M1775 3199 c-478 -40 -912 -356 -1095 -797 -18 -42 -36 -79 -41 -82
-16 -11 -58 -200 -69 -316 l-12 -121 12 -119 c11 -115 52 -302 68 -313 4 -3
21 -40 37 -81 153 -386 527 -694 955 -786 l85 -19 185 0 185 0 85 19 c449 98
822 416 976 831 10 28 21 52 24 55 23 18 60 215 67 355 l6 120 -12 90 c-14
102 -48 257 -59 265 -4 3 -27 51 -51 108 l-44 103 -70 107 -71 107 -80 81
c-288 290 -667 428 -1081 393z m312 -55 c410 -60 760 -310 948 -675 54 -106
115 -268 115 -308 0 -12 4 -21 9 -21 14 0 31 -134 31 -254 0 -123 -17 -266
-31 -266 -5 0 -9 -7 -9 -16 0 -68 -100 -299 -187 -434 l-55 -85 -102 -101
c-191 -191 -422 -313 -681 -359 l-90 -16 -135 0 -135 0 -102 20 c-406 83 -724
324 -905 686 -43 85 -98 232 -98 260 0 7 -4 15 -10 17 -14 5 -40 183 -40 282
0 92 26 297 39 306 4 3 20 45 35 94 179 580 794 961 1403 870z" />
  </g>
  <g transform="translate(0.000000,377.000000) scale(0.100000,-0.100000)" fill="#89fddc" stroke="none">
    <path d="M1707 3154 c-483 -75 -894 -422 -1033 -870 -15 -49 -31 -91 -35 -94
-46 -32 -45 -592 1 -608 6 -2 10 -10 10 -17 0 -28 55 -175 98 -260 181 -362
497 -602 905 -686 l102 -21 140 0 140 -1 95 17 c262 46 493 167 686 360 l102
101 55 85 c87 135 187 366 187 434 0 9 4 16 9 16 15 0 31 144 31 276 0 128
-16 264 -31 264 -5 0 -9 9 -9 21 0 77 -131 362 -222 484 -283 377 -764 572
-1231 499z m368 -44 c527 -75 936 -465 1051 -1001 l18 -84 0 -145 0 -145 -17
-83 c-127 -585 -592 -983 -1178 -1009 l-126 -6 -104 18 c-540 89 -952 492
-1044 1019 l-15 89 0 122 0 122 15 85 c87 501 513 928 1005 1008 41 6 82 13
90 15 37 7 242 4 305 -5z" />
  </g>
  <g transform="translate(0.000000,377.000000) scale(0.100000,-0.100000)" fill="#1bfd60" stroke="none">
    <path d="M1680 2961 c-434 -97 -749 -398 -856 -820 l-25 -96 -6 -121 -6 -120
17 -103 c84 -499 459 -866 954 -932 l87 -12 115 6 c526 25 948 389 1045 900
l15 79 0 128 0 127 -15 84 c-59 336 -288 637 -600 790 l-100 49 -100 26 -100
26 -170 4 -170 4 -85 -19z m471 -74 c431 -111 733 -442 800 -877 l12 -75 -6
-120 -6 -120 -30 -102 c-34 -119 -75 -207 -142 -308 l-48 -72 -99 -94 -98 -94
-82 -49 c-92 -55 -230 -110 -337 -134 l-70 -16 -145 0 -145 1 -98 26 c-377
100 -653 371 -764 749 l-27 93 0 170 0 170 26 95 c106 395 438 701 833 769 33
6 71 13 85 15 14 3 75 3 135 1 l110 -4 96 -24z" />
  </g>
  <g transform="translate(0.000000,377.000000) scale(0.100000,-0.100000)" fill="#2cfd7f" stroke="none">
    <path d="M1800 3024 c-14 -2 -59 -9 -100 -15 -347 -51 -686 -307 -839 -632
-342 -731 131 -1569 930 -1649 l117 -12 115 12 c519 54 934 435 1022 937 l15
88 0 116 c0 459 -244 850 -651 1046 -183 87 -441 133 -609 109z m395 -88 l100
-26 100 -49 c312 -153 541 -454 600 -790 l15 -84 0 -117 0 -118 -15 -79 c-96
-506 -516 -872 -1035 -900 l-105 -6 -87 12 c-495 66 -870 433 -954 932 l-17
103 6 110 6 111 25 96 c107 421 422 723 856 820 l85 19 160 -4 160 -4 100 -26z" />
  </g>
  <g transform="translate(0.000000,377.000000) scale(0.100000,-0.100000)" fill="#6ffdca" stroke="none">
    <path d="M1760 3125 c-8 -2 -49 -9 -90 -15 -492 -80 -918 -507 -1005 -1008
l-15 -85 0 -132 0 -132 15 -89 c92 -527 504 -930 1044 -1019 l104 -18 136 6
c593 23 1059 419 1188 1009 l18 83 -1 155 0 155 -18 84 c-115 537 -524 926
-1051 1001 -63 9 -287 12 -325 5z m440 -79 l105 -26 121 -60 c356 -174 584
-470 664 -860 l20 -98 0 -110 c0 -590 -409 -1087 -985 -1198 l-90 -17 -130 0
-130 0 -85 16 c-541 106 -934 535 -990 1082 l-11 105 11 104 c22 218 87 395
211 576 l58 85 93 91 93 91 90 59 c136 89 285 148 450 180 l70 13 165 -3 165
-4 105 -26z" />
  </g>
  <g transform="translate(0.000000,377.000000) scale(0.100000,-0.100000)" fill="#fbf300" stroke="none">
    <path d="M1750 2347 c-170 -58 -284 -176 -334 -346 l-16 -55 0 -86 0 -86 16
-55 c51 -174 179 -302 353 -353 l55 -16 91 0 91 0 55 16 c174 51 302 179 353
353 l16 55 0 86 0 86 -16 55 c-51 174 -179 302 -353 353 l-55 16 -95 0 -96 -1
-65 -22z m336 -133 l56 -26 53 -53 53 -53 28 -59 29 -58 0 -105 0 -105 -29
-58 -28 -59 -53 -53 -53 -53 -56 -26 c-105 -50 -237 -50 -342 0 l-56 26 -53
53 -53 53 -28 59 -29 58 0 105 0 105 29 58 28 59 53 53 53 53 56 26 c105 50
237 50 342 0z" />
  </g>
  <g transform="translate(0.000000,377.000000) scale(0.100000,-0.100000)" fill="#56fdb3" stroke="none">
    <path d="M1685 3076 c-165 -32 -314 -91 -450 -180 l-90 -59 -93 -91 -93 -91
-58 -85 c-125 -183 -189 -359 -212 -581 l-10 -109 11 -110 c55 -557 460 -994
1010 -1091 l75 -13 135 0 135 1 90 17 c580 112 985 608 985 1208 l0 120 -20
98 c-80 390 -308 686 -664 860 l-121 60 -105 26 -105 26 -175 4 -175 3 -70
-13z m433 -52 c507 -90 901 -520 953 -1041 l12 -112 -12 -106 c-61 -546 -478
-974 -1018 -1046 l-88 -12 -120 6 -120 6 -98 25 c-117 30 -231 78 -341 143
l-80 48 -109 104 -108 105 -55 82 c-102 154 -170 338 -195 529 l-12 90 7 94
c50 709 687 1208 1384 1085z" />
  </g>
  <g transform="translate(0.000000,377.000000) scale(0.100000,-0.100000)" fill="#b2fe00" stroke="none">
    <path d="M1811 2497 c-35 -4 -98 -21 -140 -37 l-76 -30 -70 -52 c-346 -262
-345 -786 2 -1034 396 -284 939 -72 1026 401 40 218 -41 454 -206 600 l-52 46
-90 44 c-131 63 -245 81 -394 62z m277 -103 c186 -64 321 -206 376 -393 l16
-55 0 -71 c0 -105 -15 -170 -60 -263 l-41 -82 -53 -54 c-70 -72 -144 -118
-244 -151 l-82 -27 -108 4 -107 4 -76 32 c-131 56 -210 125 -292 254 -9 15
-28 61 -42 102 l-25 75 0 90 0 91 26 77 c83 244 285 389 547 392 l89 1 76 -26z" />
  </g>
  <g transform="translate(0.000000,377.000000) scale(0.100000,-0.100000)" fill="#3ffd9a" stroke="none">
    <path d="M1780 3049 c-577 -62 -1018 -524 -1056 -1107 l-7 -99 13 -99 c24
-191 90 -372 194 -528 l55 -82 108 -105 109 -104 80 -48 c110 -65 223 -113
341 -143 l98 -25 130 -6 130 -6 88 12 c559 75 980 526 1023 1098 l6 88 -11
107 c-70 647 -654 1117 -1301 1047z m249 -39 c503 -52 926 -448 1006 -944 111
-682 -372 -1283 -1070 -1332 l-90 -6 -100 12 c-780 93 -1237 916 -904 1627
153 325 492 581 839 632 41 6 86 13 100 15 51 7 120 6 219 -4z" />
  </g>
  <g transform="translate(0.000000,377.000000) scale(0.100000,-0.100000)" fill="#0afd2a" stroke="none">
    <path d="M1780 2889 c-448 -55 -801 -388 -886 -836 l-16 -88 5 -140 6 -140 20
-75 c106 -404 426 -695 834 -760 l77 -13 138 6 137 5 77 21 c115 30 222 78
318 142 l86 57 79 84 c172 179 259 370 285 623 l10 103 -10 92 c-66 586 -578
991 -1160 919z m310 -65 c239 -45 442 -166 586 -347 l65 -82 50 -100 49 -100
25 -95 24 -95 -3 -160 -3 -160 -23 -75 c-102 -342 -353 -593 -686 -686 l-89
-25 -116 -6 -116 -6 -84 12 c-321 47 -586 239 -736 536 l-45 89 -25 96 -24 95
-4 120 -4 120 14 70 c41 207 114 356 244 497 228 247 576 363 901 302z" />
  </g>
  <g transform="translate(0.000000,377.000000) scale(0.100000,-0.100000)" fill="#10fd43" stroke="none">
    <path d="M1800 2924 c-14 -2 -52 -9 -85 -15 -395 -68 -727 -374 -833 -769
l-26 -95 0 -180 0 -180 27 -93 c112 -378 387 -648 764 -749 l98 -26 155 -1
155 0 70 16 c107 24 245 79 337 134 l82 49 98 94 99 94 48 72 c67 101 108 189
143 308 l29 102 6 130 6 130 -12 75 c-67 435 -368 765 -800 877 l-96 24 -120
4 c-66 2 -131 2 -145 -1z m313 -60 c438 -83 765 -443 816 -899 l10 -88 -9 -96
c-26 -249 -114 -441 -285 -619 l-79 -84 -86 -57 c-96 -64 -203 -112 -318 -142
l-77 -21 -127 -5 -127 -6 -78 13 c-408 65 -728 357 -834 760 l-20 75 -6 130
-5 130 16 88 c108 572 635 930 1209 821z" />
  </g>
  <g transform="translate(0.000000,377.000000) scale(0.100000,-0.100000)" fill="#d9ff00" stroke="none">
    <path d="M1785 2419 c-198 -46 -352 -187 -419 -382 l-26 -77 0 -101 0 -100 25
-75 c14 -41 33 -87 42 -102 82 -129 161 -198 292 -254 l76 -32 118 -4 117 -4
83 27 c188 63 325 203 380 390 l14 50 2 100 2 100 -17 55 c-56 189 -190 330
-376 394 l-76 26 -99 -1 c-54 -1 -116 -5 -138 -10z m266 -75 c174 -51 302
-179 353 -353 l16 -55 0 -76 0 -76 -16 -55 c-51 -174 -179 -302 -353 -353
l-55 -16 -81 0 -81 0 -55 16 c-174 51 -302 179 -353 353 l-16 55 0 76 0 76 16
55 c50 170 164 288 334 346 l65 22 86 1 85 0 55 -16z" />
  </g>
  <g transform="translate(0.000000,377.000000) scale(0.100000,-0.100000)" fill="#ffc500" stroke="none">
    <path d="M1853 2259 c-149 -20 -274 -123 -324 -266 l-21 -57 0 -76 0 -76 21
-57 c40 -115 134 -208 248 -249 l58 -20 80 0 80 0 58 20 c114 41 208 134 248
249 l21 57 0 76 0 76 -21 57 c-64 184 -249 294 -448 266z m205 -124 c60 -33
111 -84 144 -147 l23 -43 0 -85 0 -85 -29 -53 c-34 -60 -85 -111 -148 -144
l-43 -23 -90 0 -90 0 -54 30 c-57 32 -110 86 -144 150 l-22 40 0 85 0 85 30
54 c37 66 101 124 169 151 l51 20 75 -3 76 -3 52 -29z" />
  </g>
  <g transform="translate(0.000000,377.000000) scale(0.100000,-0.100000)" fill="#ff9a00" stroke="none">
    <path d="M1794 2160 c-68 -27 -132 -85 -169 -151 l-30 -54 0 -95 0 -95 22 -40
c34 -64 87 -118 144 -150 l54 -30 100 0 100 0 43 23 c63 33 114 84 148 144
l29 53 0 95 0 95 -23 43 c-34 63 -84 114 -144 147 l-53 29 -85 3 -85 3 -51
-20z m243 -110 c68 -46 100 -94 110 -166 l5 -42 -16 -50 -17 -50 -35 -36 c-45
-46 -83 -66 -144 -73 l-48 -6 -52 19 c-86 31 -145 102 -157 190 l-5 42 16 48
c24 70 77 125 143 150 l38 14 57 -4 57 -4 48 -32z" />
  </g>
  <g transform="translate(0.000000,377.000000) scale(0.100000,-0.100000)" fill="#ff6c00" stroke="none">
    <path d="M1827 2086 c-66 -25 -119 -80 -143 -150 l-17 -49 6 -51 c10 -95 67
-168 157 -200 l52 -19 57 6 c69 6 108 24 155 73 l35 36 17 50 17 51 -6 51 c-8
80 -38 127 -111 176 l-48 33 -67 4 -66 3 -38 -14z m130 -97 c42 -16 82 -59 93
-100 l10 -37 -11 -29 c-15 -40 -57 -81 -96 -94 l-33 -11 -31 7 c-42 9 -95 59
-109 100 l-12 35 11 33 c26 77 109 122 178 96z" />
  </g>
  <g transform="translate(0.000000,377.000000) scale(0.100000,-0.100000)" fill="#ff3500" stroke="none">
    <path d="M1855 1996 c-41 -18 -83 -69 -91 -111 l-6 -34 12 -35 c33 -102 163
-137 245 -65 l35 31 11 37 11 37 -11 40 c-24 89 -122 137 -206 100z" />
  </g>
</svg>